<svg id="visual" viewBox="0 0 960 540" width="960" height="540" xmlns="http://www.w3.org/2000/svg" xmlns:xlink="http://www.w3.org/1999/xlink" version="1.1"><rect x="0" y="0" width="960" height="540" fill="#6600FF" opacity="0.0"></rect><path d="M0 300L10.7 323.8C21.3 347.7 42.7 395.3 64 397C85.3 398.7 106.7 354.3 128 348.3C149.3 342.3 170.7 374.7 192 378.2C213.3 381.7 234.7 356.3 256 338.7C277.3 321 298.7 311 320 321.5C341.3 332 362.7 363 384 363.5C405.3 364 426.7 334 448 324.8C469.3 315.7 490.7 327.3 512 350C533.3 372.7 554.7 406.3 576 401C597.3 395.7 618.7 351.3 640 338.5C661.3 325.7 682.7 344.3 704 354.2C725.3 364 746.7 365 768 356C789.3 347 810.7 328 832 327.3C853.3 326.7 874.7 344.3 896 365.3C917.3 386.3 938.7 410.7 949.3 422.8L960 435L960 541L949.3 541C938.7 541 917.3 541 896 541C874.7 541 853.3 541 832 541C810.7 541 789.3 541 768 541C746.7 541 725.3 541 704 541C682.7 541 661.3 541 640 541C618.7 541 597.3 541 576 541C554.7 541 533.3 541 512 541C490.7 541 469.3 541 448 541C426.7 541 405.3 541 384 541C362.7 541 341.3 541 320 541C298.7 541 277.3 541 256 541C234.7 541 213.3 541 192 541C170.7 541 149.3 541 128 541C106.7 541 85.3 541 64 541C42.7 541 21.3 541 10.7 541L0 541Z" fill="#FFFFFF" stroke-linecap="round" stroke-linejoin="miter"></path></svg>